<?xml version="1.0"?>
<svg xmlns="http://www.w3.org/2000/svg" version="1" viewBox="0 0 50 50" enable-background="new 0 0 50 50">
    <path style="text-indent:0;text-align:start;line-height:normal;text-transform:none;block-progression:tb;-inkscape-font-specification:Bitstream Vera Sans" d="M 20.1875 0.21875 A 0.750075 0.750075 0 0 0 20.125 0.25 A 0.750075 0.750075 0 0 0 19.6875 0.59375 L 15.5625 6.78125 A 0.750075 0.750075 0 0 0 15.78125 7.8125 L 17.125 8.71875 C 17.010242 8.9255625 16.694915 9.4545122 16.21875 10.1875 C 15.692314 10.997873 15.016158 11.982973 14.3125 12.9375 C 13.608842 13.892027 12.870351 14.792681 12.25 15.4375 C 11.939825 15.75991 11.639762 16.011997 11.4375 16.15625 C 11.308558 16.248211 11.24177 16.296539 11.25 16.3125 C 11.24001 16.312481 11.230047 16.312464 11.21875 16.3125 C 11.207453 16.312536 11.198526 16.31247 11.1875 16.3125 C 12.311538 15.220627 13 13.682494 13 12 C 13 8.6981362 10.301864 6 7 6 C 3.6981362 6 1 8.6981362 1 12 C 1 14.347419 2.3688858 16.390453 4.34375 17.375 C 3.7100988 17.8406 3.2398731 18.467707 3.03125 19.21875 C 2.8329193 19.879852 2.6046716 21.216261 2.375 22.875 C 2.1453284 24.533739 1.9464873 26.42587 2 28.03125 C 2.063176 29.926517 3.1281416 32.510244 5.15625 35.21875 C 6.9893622 37.666842 9.655536 40.133555 13.15625 41.9375 C 11.402134 43.187074 9.7125975 44.425341 8.15625 45.625 C 3.8738013 44.423733 1.65625 42.53125 1.65625 42.53125 A 1.0001 1.0001 0 0 0 0.90625 42.28125 A 1.0001 1.0001 0 0 0 0.34375 44.0625 C 0.34375 44.0625 3.0319611 46.261867 7.9375 47.59375 A 1.0031688 1.0031688 0 0 0 8.28125 47.6875 C 8.2910023 47.690011 8.3027308 47.684996 8.3125 47.6875 A 1.0031688 1.0031688 0 0 0 8.40625 47.71875 C 10.405761 48.223445 12.738377 48.59375 15.40625 48.59375 C 23.505395 48.59375 29.634888 45.09375 36.40625 45.09375 C 43.055546 45.09375 48.34375 49.65625 48.34375 49.65625 A 1.0001 1.0001 0 1 0 49.65625 48.15625 C 49.65625 48.15625 44.472807 43.547259 37.4375 43.125 C 41.561204 40.008497 46.298424 35.340653 48.1875 31.5625 C 48.930004 30.139367 48.930658 28.48173 48.03125 27.3125 C 47.131842 26.14327 45.424604 25.664799 43.46875 26.125 C 39.246644 27.141433 34.506726 29.128558 29.71875 31.625 C 29.386914 31.390181 27.642842 30.141879 25.46875 28.75 C 24.274389 27.985356 23.029478 27.223082 21.90625 26.625 C 20.783022 26.026918 19.905437 25.546092 18.9375 25.5 C 17.274362 25.4208 15.430836 25.760569 14.15625 26.03125 L 14.59375 22.46875 C 16.708685 22.450799 24.204261 22.044703 29 16.75 L 31.6875 18.53125 A 0.750075 0.750075 0 0 0 32.71875 18.3125 L 39.9375 7.625 A 0.750075 0.750075 0 0 0 39.21875 6.4375 A 0.750075 0.750075 0 0 0 39.15625 6.4375 A 0.750075 0.750075 0 0 0 38.6875 6.78125 L 31.875 16.84375 L 29.9375 15.5625 C 30.208325 15.074308 30.360709 14.563718 30.34375 14.0625 C 30.3186 13.319211 29.867777 12.668716 29.3125 12.3125 C 28.757223 11.956284 28.131819 11.79375 27.46875 11.84375 C 26.847995 11.890559 26.201169 12.142982 25.625 12.53125 L 24.75 11.96875 L 29.90625 4.3125 A 0.750075 0.750075 0 0 0 29.15625 3.15625 A 0.750075 0.750075 0 0 0 28.6875 3.46875 L 23.46875 11.15625 L 22.59375 10.59375 C 22.596668 10.579549 22.591664 10.580327 22.59375 10.5625 C 22.60507 10.52503 22.62754 10.440081 22.65625 10.34375 C 22.71368 10.151088 22.784968 9.8928819 22.8125 9.5625 C 22.86756 8.9017363 22.621229 7.892144 21.78125 7.28125 C 21.362718 6.9768628 20.903255 6.8310078 20.4375 6.78125 C 20.204622 6.756371 19.97645 6.7538 19.75 6.78125 C 19.52355 6.8087 19.298821 6.866171 19.09375 6.9375 C 18.697964 7.0751648 18.341586 7.2711731 18.03125 7.53125 L 17.25 6.96875 L 20.9375 1.40625 A 0.750075 0.750075 0 0 0 20.25 0.21875 A 0.750075 0.750075 0 0 0 20.1875 0.21875 z M 7 8 C 9.2209836 8 11 9.7790164 11 12 C 11 14.220984 9.2209836 16 7 16 C 4.7790164 16 3 14.220984 3 12 C 3 9.7790164 4.7790164 8 7 8 z M 20 8.75 C 20.230835 8.7154213 20.427799 8.7628313 20.625 8.90625 C 20.885021 9.095356 20.832436 9.1670137 20.8125 9.40625 C 20.8025 9.5258681 20.7582 9.6489123 20.71875 9.78125 C 20.69903 9.847419 20.67892 9.9249668 20.65625 10 C 20.64577 10.0347 20.63906 10.141351 20.625 10.1875 C 20.60886 10.22391 20.58999 10.25451 20.5625 10.3125 C 20.48003 10.486469 20.346303 10.729525 20.1875 11.03125 C 19.869895 11.6347 19.433147 12.426924 18.9375 13.21875 C 18.441853 14.010576 17.870902 14.804853 17.375 15.375 C 16.929566 15.887123 16.542129 16.143099 16.5 16.1875 C 15.805986 16.229031 15.067725 16.260874 14.15625 16.28125 C 14.733647 15.624607 15.331878 14.904148 15.90625 14.125 C 16.640092 13.129527 17.329561 12.089627 17.875 11.25 C 18.420439 10.410373 18.81239 9.8127198 19 9.4375 C 19.112854 9.211791 19.420282 8.9271844 19.75 8.8125 C 19.832429 8.7838289 19.923055 8.7615262 20 8.75 z M 21.96875 11.96875 L 24.21875 13.4375 C 22.598285 14.518411 21.493443 15.274709 20.21875 15.65625 C 20.014811 15.717293 19.797966 15.761173 19.5625 15.8125 C 19.926322 15.316697 20.295292 14.80798 20.625 14.28125 C 21.154353 13.435576 21.630105 12.612175 21.96875 11.96875 z M 27.59375 13.90625 C 27.883918 13.887559 28.142777 13.931216 28.25 14 C 28.357223 14.06878 28.34077 14.03704 28.34375 14.125 C 28.34675 14.21296 28.31124 14.516324 27.9375 14.96875 C 23.250894 20.666193 13.71875 20.5 13.71875 20.5 A 1.0001 1.0001 0 0 0 12.71875 21.375 L 12 27.1875 A 1.0001 1.0001 0 0 0 13.21875 28.28125 C 13.21875 28.28125 17.085746 27.416286 18.84375 27.5 C 18.92581 27.5039 19.926353 27.819957 20.96875 28.375 C 22.011147 28.930043 23.238111 29.689644 24.40625 30.4375 C 25.832222 31.350424 26.963822 32.12126 27.78125 32.6875 C 27.014032 33.107699 26.233694 33.527795 25.46875 33.96875 C 25.330208 33.882723 24.092185 33.110407 22.625 32.1875 C 21.078155 31.214485 19.33375 30.08625 19.09375 29.90625 A 1.0001 1.0001 0 0 0 18.4375 29.6875 A 1.0001 1.0001 0 0 0 18.25 29.71875 C 17.478617 29.924452 16.050211 30.3376 14.6875 30.84375 C 14.006144 31.096825 13.33053 31.382417 12.75 31.6875 C 12.16947 31.992583 11.669359 32.27885 11.28125 32.8125 A 1.0001 1.0001 0 0 0 11.125 33.5625 C 11.486309 35.658094 13.435709 36.993672 15.15625 38.03125 C 15.917652 38.490416 16.652139 38.840399 17.25 39.125 C 16.498735 39.627203 15.761188 40.119789 15.03125 40.625 C 11.358158 38.95301 8.5796526 36.443472 6.75 34 C 4.9031084 31.533506 4.0368244 29.073483 4 27.96875 C 3.9535127 26.57413 4.1234216 24.716261 4.34375 23.125 C 4.5640784 21.533739 4.8670807 20.120148 4.96875 19.78125 C 5.1502414 19.127881 5.2980725 18.942903 6.09375 18.6875 C 6.8894275 18.432097 8.330303 18.3125 10.5 18.3125 C 10.737902 18.3125 10.89755 18.312915 11.125 18.3125 C 11.193235 18.312376 11.245185 18.312665 11.3125 18.3125 C 11.345777 18.3125 11.374322 18.314044 11.40625 18.3125 C 13.435289 18.306845 15.080489 18.286359 16.40625 18.21875 A 1.0001 1.0001 0 0 0 16.4375 18.21875 C 16.46602 18.217278 16.502992 18.220262 16.53125 18.21875 A 1.0001 1.0001 0 0 0 16.71875 18.1875 A 1.0001 1.0001 0 0 0 16.75 18.1875 C 18.484788 18.086674 19.745394 17.913156 20.8125 17.59375 C 22.855991 16.982093 24.015404 15.92408 26.625 14.25 A 1.0001 1.0001 0 0 0 26.6875 14.21875 C 26.982106 14.005979 27.303582 13.924941 27.59375 13.90625 z M 44.875 27.9375 C 45.699038 27.92352 46.174556 28.220672 46.4375 28.5625 C 46.788092 29.01827 46.863746 29.748133 46.40625 30.625 A 1.0001 1.0001 0 0 0 46.40625 30.65625 C 44.507851 34.453048 37.897067 40.66565 33.78125 43.25 C 27.501603 43.90316 22.001925 46.59375 15.40625 46.59375 C 13.682399 46.59375 12.127702 46.460128 10.71875 46.21875 C 20.409418 38.923049 34.049068 30.443048 43.9375 28.0625 C 44.298536 27.97755 44.600321 27.94216 44.875 27.9375 z M 18.34375 31.78125 C 19.033412 32.260737 20.194622 33.014561 21.5625 33.875 C 22.597937 34.526323 23.018757 34.786552 23.5625 35.125 C 22.085546 36.009908 20.623188 36.913909 19.1875 37.84375 C 19.052427 37.789843 17.698322 37.236011 16.21875 36.34375 C 14.893817 35.544745 13.826805 34.463387 13.40625 33.65625 C 13.525826 33.57469 13.522893 33.555255 13.6875 33.46875 C 14.147595 33.226958 14.743856 32.953175 15.375 32.71875 C 16.485657 32.30622 17.574528 31.993125 18.34375 31.78125 z"/>
</svg>
