<?xml version="1.0" encoding="iso-8859-1"?>
<!-- Generator: Adobe Illustrator 18.0.0, SVG Export Plug-In . SVG Version: 6.00 Build 0)  -->
<!DOCTYPE svg PUBLIC "-//W3C//DTD SVG 1.1//EN" "http://www.w3.org/Graphics/SVG/1.1/DTD/svg11.dtd">
<svg version="1.1" id="Capa_1" xmlns="http://www.w3.org/2000/svg" xmlns:xlink="http://www.w3.org/1999/xlink" x="0px" y="0px"
	 viewBox="0 0 241.093 241.093" style="enable-background:new 0 0 241.093 241.093;" xml:space="preserve">
<g>
	<path d="M234.184,195.272c-3.584-2.075-8.173-0.849-10.248,2.736c-6.208,10.731-17.756,17.398-30.136,17.398
		c-12.38,0-23.928-6.666-30.135-17.397c-1.341-2.318-3.815-3.745-6.492-3.745c-2.677,0-5.152,1.427-6.492,3.745
		c-6.207,10.731-17.754,17.397-30.135,17.397c-12.38,0-23.926-6.666-30.134-17.397c-1.341-2.317-3.815-3.745-6.492-3.745
		c-2.677,0-5.151,1.427-6.492,3.744c-6.208,10.731-17.756,17.398-30.136,17.398c-12.379,0-23.927-6.667-30.136-17.398
		c-2.075-3.586-6.663-4.809-10.248-2.736c-3.586,2.074-4.81,6.663-2.736,10.248c8.881,15.35,25.403,24.886,43.119,24.886
		c14.022,0,27.298-5.975,36.627-16.077c9.329,10.103,22.604,16.077,36.626,16.077c14.023,0,27.298-5.974,36.628-16.077
		c9.329,10.103,22.604,16.077,36.627,16.077c17.716,0,34.239-9.536,43.119-24.886C238.994,201.934,237.769,197.346,234.184,195.272z
		"/>
	<path d="M240.522,142.178C208.454,64.759,154.119,10.688,108.39,10.688c-7.07,0-13.829,1.315-20.091,3.909
		c-3.827,1.585-5.644,5.973-4.059,9.799l64.529,155.787c1.196,2.888,3.989,4.632,6.932,4.632c0.956,0,1.929-0.184,2.867-0.573
		l77.895-32.265c1.838-0.761,3.298-2.221,4.059-4.059C241.283,146.081,241.283,144.016,240.522,142.178z M159.757,167.514
		L101.275,26.325c19.523-3.594,44.233,8.249,68.283,32.402c20.797,20.887,39.865,49.906,54.157,82.295L159.757,167.514z"/>
	<path d="M24.178,86.617c13.331,0,24.177-10.846,24.177-24.177c0-13.332-10.846-24.178-24.177-24.178
		C10.846,38.263,0,49.109,0,62.44C0,75.771,10.846,86.617,24.178,86.617z M24.178,53.263c5.06,0,9.177,4.117,9.177,9.178
		c0,5.06-4.117,9.177-9.177,9.177C19.117,71.617,15,67.5,15,62.44C15,57.38,19.117,53.263,24.178,53.263z"/>
	<path d="M70.844,105.9l27.821-14.358c3.681-1.899,5.125-6.423,3.225-10.104c-1.899-3.681-6.423-5.126-10.104-3.225L65.583,91.735
		H24.178c-2.616,0-5.043,1.363-6.404,3.597c-1.361,2.234-1.461,5.015-0.262,7.34l24.679,47.864c1.287,2.495,3.859,4.063,6.666,4.063
		H91.96l25.895,27.823c1.478,1.588,3.482,2.391,5.492,2.391c1.83,0,3.664-0.665,5.108-2.01c3.032-2.821,3.203-7.568,0.381-10.6
		l-28.119-30.214c-1.419-1.525-3.408-2.391-5.49-2.391H53.428l-16.945-32.864h30.921C68.601,106.735,69.78,106.449,70.844,105.9z"/>
</g>
<g>
</g>
<g>
</g>
<g>
</g>
<g>
</g>
<g>
</g>
<g>
</g>
<g>
</g>
<g>
</g>
<g>
</g>
<g>
</g>
<g>
</g>
<g>
</g>
<g>
</g>
<g>
</g>
<g>
</g>
</svg>
