<?xml version="1.0" encoding="iso-8859-1"?>
<!-- Generator: Adobe Illustrator 21.0.2, SVG Export Plug-In . SVG Version: 6.00 Build 0)  -->
<svg xmlns="http://www.w3.org/2000/svg" xmlns:xlink="http://www.w3.org/1999/xlink" version="1.1" id="Layer_1" x="0px" y="0px" viewBox="0 0 40 40" style="enable-background:new 0 0 40 40;" xml:space="preserve">
<g>
	<path style="fill:#DFF0FE;" d="M9,17.5c-0.4,0-0.777-0.156-1.061-0.439c-0.585-0.585-0.585-1.536,0-2.121l7-7   C15.223,7.656,15.6,7.5,16,7.5s0.777,0.156,1.061,0.439c0.585,0.585,0.585,1.536,0,2.121l-7,7C9.777,17.344,9.4,17.5,9,17.5z"/>
	<path style="fill:#4788C7;" d="M16,8c0.267,0,0.518,0.104,0.707,0.293c0.39,0.39,0.39,1.024,0,1.414l-7,7   C9.518,16.896,9.267,17,9,17s-0.518-0.104-0.707-0.293c-0.39-0.39-0.39-1.024,0-1.414l7-7C15.482,8.104,15.733,8,16,8 M16,7   c-0.512,0-1.023,0.195-1.414,0.586l-7,7c-0.781,0.781-0.781,2.047,0,2.828C7.977,17.805,8.488,18,9,18s1.023-0.195,1.414-0.586l7-7   c0.781-0.781,0.781-2.047,0-2.828C17.023,7.195,16.512,7,16,7L16,7z"/>
</g>
<g>
	<path style="fill:#DFF0FE;" d="M20.999,28.5c-0.35,0-0.689-0.124-0.959-0.348l-5.473-4.56l-5.32,0.887   C9.162,24.493,9.078,24.5,8.994,24.5c-0.732,0-1.353-0.526-1.474-1.253c-0.136-0.816,0.417-1.591,1.232-1.727l6-1   c0.086-0.015,0.169-0.021,0.251-0.021c0.347,0,0.687,0.124,0.956,0.349l6,5c0.636,0.529,0.722,1.478,0.192,2.112   C21.866,28.304,21.446,28.5,20.999,28.5z"/>
	<path style="fill:#4788C7;" d="M15.004,20.999c0.23,0,0.455,0.083,0.636,0.233l6,5c0.423,0.353,0.481,0.984,0.128,1.408   C21.577,27.869,21.297,28,20.999,28c-0.164,0-0.409-0.04-0.639-0.232l-5.296-4.412l-0.352-0.293l-0.452,0.075l-5.094,0.849   C9.108,23.996,9.051,24,8.995,24c-0.487,0-0.9-0.352-0.981-0.836c-0.091-0.544,0.278-1.06,0.822-1.151l6.007-1.001   C14.896,21.003,14.95,20.999,15.004,20.999 M15.004,19.999c-0.111,0-0.222,0.009-0.333,0.029l-6,1   c-1.089,0.182-1.825,1.212-1.644,2.302C7.19,24.306,8.029,25,8.995,25c0.11,0,0.222-0.009,0.335-0.028l5.095-0.849l5.296,4.412   C20.094,28.848,20.548,29,20.999,29c0.573,0,1.142-0.245,1.537-0.72c0.707-0.849,0.593-2.109-0.256-2.816l-6-5   C15.919,20.163,15.467,19.999,15.004,19.999L15.004,19.999z"/>
</g>
<g>
	<path style="fill:#98CCFD;" d="M9,24.5c-0.253,0-0.497-0.063-0.717-0.186l0.136-2.697c0.106-0.045,0.218-0.077,0.334-0.097l6-1   c0.085-0.015,0.167-0.021,0.249-0.021c0.215,0,0.427,0.048,0.621,0.138l-1.517,3.033l-4.859,0.81C9.164,24.493,9.081,24.5,9,24.5z"/>
	<g>
		<path style="fill:#4788C7;" d="M14.878,21.007l-1.106,2.212l-4.607,0.767C9.11,23.995,9.055,24,9,24    c-0.071,0-0.138-0.008-0.2-0.021l0.1-1.976l5.942-0.99C14.854,21.01,14.866,21.009,14.878,21.007 M15.003,19.999    c-0.111,0-0.222,0.009-0.332,0.029l-6,1c-0.27,0.045-0.519,0.143-0.737,0.281L7.77,24.571C8.113,24.84,8.542,25,9,25    c0.108,0,0.218-0.009,0.329-0.027l5.095-0.849l0.01,0.008l1.837-3.675C15.912,20.161,15.462,19.999,15.003,19.999L15.003,19.999z"/>
	</g>
</g>
<polyline style="fill:none;stroke:#4788C7;stroke-linecap:round;stroke-miterlimit:10;" points="16.404,1.527 13.079,6.438   23.972,13.171 30.498,4.034 "/>
<line style="fill:none;stroke:#4788C7;stroke-linecap:round;stroke-miterlimit:10;" x1="23.744" y1="2.656" x2="18.949" y2="9.848"/>
<g>
	<path style="fill:#B6DCFE;" d="M3.5,23.661V23l0.989-6.211C4.741,15.271,5.862,14.5,7.82,14.5h2.955l-1.27,8.426   c-0.148,0.89-1.942,1.609-3.135,1.885L3.5,23.661z"/>
	<path style="fill:#4788C7;" d="M10.194,15l-1.181,7.836c-0.083,0.5-1.388,1.144-2.605,1.452L4,23.323v-0.245l0.981-6.204   C5.115,16.07,5.555,15,7.821,15H10.194 M11.356,14c0,0-3.29,0-3.536,0c-2.178,0-3.525,0.9-3.826,2.711L3,23v1l3.328,1.332   c0,0,3.401-0.707,3.672-2.332L11.356,14L11.356,14z"/>
</g>
<g>
	<circle style="fill:#DFF0FE;" cx="7" cy="10" r="2.5"/>
	<path style="fill:#4788C7;" d="M7,8c1.103,0,2,0.897,2,2s-0.897,2-2,2s-2-0.897-2-2S5.897,8,7,8 M7,7c-1.658,0-3,1.342-3,3   s1.342,3,3,3c1.657,0,3-1.342,3-3S8.657,7,7,7L7,7z"/>
</g>
<g>
	<path style="fill:#B6DCFE;" d="M9.107,32c-0.55,0-1.062-0.297-1.336-0.774l-4.074-6.795c-0.105-0.281-0.162-0.536-0.186-0.931   h5.847c-0.089,0.173-0.242,0.358-0.383,0.526c-0.116,0.14-0.228,0.274-0.314,0.403l-0.145,0.215l1.89,4.986   c0.237,0.428,0.29,0.841,0.183,1.237c-0.108,0.396-0.364,0.727-0.721,0.93C9.637,31.931,9.374,32,9.107,32z"/>
	<g>
		<path style="fill:#4788C7;" d="M8.355,24c-0.039,0.051-0.075,0.102-0.109,0.151L7.958,24.58l0.183,0.483l1.798,4.745l0.028,0.074    l0.039,0.068c0.137,0.24,0.173,0.519,0.1,0.786c-0.073,0.267-0.245,0.49-0.486,0.627C9.462,31.454,9.29,31.5,9.108,31.5    c-0.371,0-0.717-0.2-0.912-0.54L4.17,24.247C4.139,24.162,4.113,24.082,4.091,24H8.355 M10,23H3c0,0.719,0.049,1.136,0.269,1.688    l4.07,6.787C7.715,32.132,8.401,32.5,9.108,32.5c0.343,0,0.691-0.086,1.009-0.268c0.977-0.558,1.316-1.802,0.758-2.778    l-1.798-4.745c0.257-0.382,0.759-0.816,0.84-1.299L10,23L10,23z"/>
	</g>
</g>
<g>
	<path style="fill:#98CCFD;" d="M8.835,36.5c-2.467,0-4.076-0.495-4.304-1.324c-0.533-1.938,5.443-6.221,14.87-9.266   c4.753-1.531,9.404-2.41,12.763-2.41c2.469,0,4.078,0.495,4.305,1.323c0.533,1.939-5.442,6.221-14.869,9.264   C16.847,35.62,12.194,36.5,8.835,36.5C8.835,36.5,8.836,36.5,8.835,36.5z"/>
	<path style="fill:#4788C7;" d="M32.165,24c2.816,0,3.731,0.625,3.822,0.956c0.339,1.235-4.486,5.409-14.541,8.655   C16.741,35.129,12.145,36,8.835,36c-2.816,0-3.732-0.626-3.823-0.956c-0.339-1.235,4.486-5.411,14.542-8.657   C24.26,24.87,28.856,24,32.165,24 M32.165,23c-3.284,0-7.926,0.826-12.917,2.435c-9.087,2.934-15.892,7.354-15.199,9.874   C4.361,36.444,6.142,37,8.835,37c3.284,0,7.926-0.826,12.918-2.437c9.087-2.933,15.891-7.354,15.199-9.872   C36.64,23.556,34.859,23,32.165,23L32.165,23z"/>
</g>
<g>
	<path style="fill:#DFF0FE;" d="M7.997,17.5c-0.739,0-1.377-0.554-1.481-1.287c-0.117-0.819,0.453-1.58,1.271-1.697l6.76-0.966   l5.782-2.892c0.211-0.105,0.437-0.159,0.67-0.159c0.572,0,1.087,0.318,1.343,0.83c0.18,0.358,0.208,0.766,0.082,1.146   c-0.127,0.38-0.395,0.688-0.753,0.867l-6,3c-0.145,0.072-0.299,0.12-0.458,0.143l-7,1C8.141,17.495,8.068,17.5,7.997,17.5z"/>
	<path style="fill:#4788C7;" d="M20.999,10.999c0.382,0,0.725,0.212,0.896,0.554c0.12,0.239,0.139,0.51,0.054,0.764   c-0.084,0.253-0.263,0.459-0.502,0.578l-5.998,2.999c-0.097,0.048-0.2,0.081-0.307,0.096l-6.999,1C8.094,16.996,8.045,17,7.997,17   c-0.492,0-0.917-0.369-0.987-0.858c-0.078-0.546,0.302-1.053,0.848-1.131l6.679-0.954l0.161-0.023l0.145-0.073l5.71-2.856   C20.694,11.035,20.844,10.999,20.999,10.999 M20.999,9.999c-0.301,0-0.606,0.068-0.893,0.212l-5.71,2.855l-6.679,0.954   c-1.093,0.156-1.853,1.169-1.696,2.263C6.163,17.28,7.019,18,7.997,18c0.095,0,0.189-0.007,0.286-0.021l7-1   c0.213-0.03,0.419-0.095,0.611-0.19l6-3c0.988-0.494,1.389-1.695,0.895-2.684C22.439,10.405,21.733,9.999,20.999,9.999   L20.999,9.999z"/>
</g>
<g>
	<path style="fill:#B6DCFE;" d="M1,39h38v-6.123C37.692,32.614,36.148,32,35,32c-1.458,0-3.563,1-5,1c-1.438,0-3.542-1-5-1   s-3.563,1-5,1c-1.438,0-3.542-1-5-1s-3.563,1-5,1c-1.438,0-3.542-1-5-1c-1.148,0-2.692,0.614-4,0.877V39z"/>
	<path style="fill:none;stroke:#4788C7;stroke-linecap:round;stroke-miterlimit:10;" d="M1.5,33.278   c0.363-0.087,0.738-0.191,1.113-0.297C3.459,32.745,4.335,32.5,5,32.5c0.663,0,1.537,0.246,2.382,0.484   C8.283,33.237,9.215,33.5,10,33.5s1.717-0.263,2.618-0.516C13.463,32.746,14.337,32.5,15,32.5s1.537,0.246,2.382,0.484   C18.283,33.237,19.215,33.5,20,33.5s1.717-0.263,2.618-0.516C23.463,32.746,24.337,32.5,25,32.5s1.537,0.246,2.382,0.484   C28.283,33.237,29.215,33.5,30,33.5s1.717-0.263,2.618-0.516C33.463,32.746,34.337,32.5,35,32.5c0.665,0,1.541,0.245,2.387,0.481   c0.375,0.105,0.75,0.21,1.113,0.297"/>
</g>
</svg>
