<?xml version="1.0" encoding="iso-8859-1"?>
<!-- Generator: Adobe Illustrator 19.0.0, SVG Export Plug-In . SVG Version: 6.00 Build 0)  -->
<svg version="1.1" id="Capa_1" xmlns="http://www.w3.org/2000/svg" xmlns:xlink="http://www.w3.org/1999/xlink" x="0px" y="0px"
	 viewBox="0 0 512 512" style="enable-background:new 0 0 512 512;" xml:space="preserve">
<g>
	<g>
		<path d="M502.464,163.674c-14.961-40.517-42.699-77.146-80.212-105.926C383.398,27.94,336.626,8.798,286.99,2.392
			C220.357-6.21,153.934,8.558,99.957,43.973c-38.61,25.332-67.401,59.533-82.967,97.506c-0.161,0.355-0.323,0.714-0.482,1.071
			l0.04,0.018c-4.911,12.201-8.456,24.786-10.527,37.587l-0.189-0.024c-0.165,1.275-0.277,2.549-0.365,3.82
			c-0.071,0.514-0.158,1.025-0.225,1.54l0.138,0.035c-0.653,14.824,3.881,29.261,13.049,41.146
			c10.278,13.323,25.129,21.848,41.817,24.002c2.723,0.352,5.437,0.524,8.131,0.524c1.193,0,2.38-0.04,3.563-0.108L181.992,512
			h147.866l108.956-256.092c20.558-0.165,39.859-9.454,52.953-25.888C506.825,211.118,510.824,186.316,502.464,163.674z
			 M64.092,220.921c-16.145-2.084-28.07-15.57-28.74-31.309l0.085-0.218l-0.097-0.038c-0.028-0.796-0.026-1.598,0.005-2.404
			c1.668-11.361,4.731-22.555,9.12-33.416c12.191-26.639,31.561-45.686,59.177-58.204c24.536-11.121,55.546-16.759,92.168-16.759
			c28.339,0,54.914,6.142,78.512,17.703c-74.925,2.626-142.443,43.738-177.56,108.666C90.037,216.348,77.226,222.615,64.092,220.921
			z M240.943,482.001h-39.045L100.76,242.222c8.882-5.331,16.486-12.872,21.937-22.207c0.121-0.205,0.257-0.444,0.391-0.694
			c24.533-45.448,67.737-77.264,117.854-88.598V482.001z M310.021,482.001h-39.079V126.482c3.654-0.215,7.326-0.342,11.021-0.342
			h34.893c11.314,10.916,21.31,23.554,29.708,37.809c5.317,9.612,30.582,55.26,33.021,59.235
			c7.136,11.631,17.372,20.646,29.383,26.253L310.021,482.001z M468.303,211.327c-8.507,10.679-21.663,16.011-35.187,14.265
			c-11.637-1.502-21.829-8.098-27.959-18.089c-1.788-2.942-20.847-37.29-32.442-58.249l-0.193-0.339
			c-37.478-63.768-101.887-100.34-176.715-100.34c-17.242,0-33.465,1.161-48.594,3.469c41.455-18.973,88.598-26.011,135.937-19.901
			c44.395,5.73,86.181,22.814,120.841,49.406c33.013,25.328,57.333,57.32,70.33,92.516
			C479.014,186.775,476.765,200.705,468.303,211.327z"/>
	</g>
</g>
<g>
</g>
<g>
</g>
<g>
</g>
<g>
</g>
<g>
</g>
<g>
</g>
<g>
</g>
<g>
</g>
<g>
</g>
<g>
</g>
<g>
</g>
<g>
</g>
<g>
</g>
<g>
</g>
<g>
</g>
</svg>
